<svg xmlns="http://www.w3.org/2000/svg" width="780" height="440" viewBox="0 0 780 440"><defs><style>.a{fill:#d8d7f9;}.b{fill:#162020;}.c{fill:#08c4b2;}.d{fill:#ffbc00;}.e{fill:#6f5ed3;}.f{fill:#ff95c1;}.g{fill:#fff;}.h{fill:#9180f4;}</style></defs><rect class="a" x="0.0018" y="0.0014" width="780" height="440"/><path class="b" d="M387.4258,299.8369a79.5609,79.5609,0,0,1-54.2276-23.5762l.8887-.8789a78.3118,78.3118,0,0,0,53.3779,23.2051Z"/><path class="b" d="M390,299.9658c-.5127,0-1.0156-.0342-1.5195-.0693-.35-.0244-.7-.0488-1.0547-.06l.039-1.25c.3711.0117.7364.0371,1.1026.0625.4746.0332.9492.0664,1.4326.0664a78.4277,78.4277,0,0,0,53.2832-20.8965l.8477.918A79.675,79.675,0,0,1,390,299.9658Z"/><path class="b" d="M444.1309,278.7383l-.8477-.92a77.9983,77.9983,0,0,0,25.33-55.8174l1.25.0312A79.2451,79.2451,0,0,1,444.1309,278.7383Z"/><path class="b" d="M445.3809,164.0854A78.2219,78.2219,0,0,0,390,141.2837c-.4834,0-.958.0332-1.4326.0664-.3662.0254-.7315.05-1.1026.062l-.039-1.249c.3545-.0117.7051-.0361,1.0547-.06.5039-.0351,1.0068-.0693,1.5195-.0693a79.4616,79.4616,0,0,1,56.26,23.1641Z"/><path class="b" d="M332.1816,166.7148l-.92-.8476a79.28,79.28,0,0,1,56.1641-25.7041l.039,1.249A78.0378,78.0378,0,0,0,332.1816,166.7148Z"/><path class="b" d="M310.1357,222.0332c-.0068-.29-.0283-.5771-.0478-.8643-.0274-.3872-.0547-.7744-.0547-1.1689a79.6837,79.6837,0,0,1,21.2285-54.1328l.92.8476A78.4339,78.4339,0,0,0,311.2832,220c0,.3647.0264.7227.0518,1.0811.0214.3056.0429.61.0507.9189Z"/><path class="b" d="M333.1982,276.2607a79.5948,79.5948,0,0,1-23.0625-54.2285l1.25-.0312a78.3479,78.3479,0,0,0,22.7012,53.3808Z"/><path class="b" d="M469.8633,222.0332l-1.25-.0332c.0078-.3086.0293-.6133.0508-.9189.0254-.3584.0517-.7164.0517-1.0811a78.1556,78.1556,0,0,0-23.3349-55.9146l.8789-.8876A79.3943,79.3943,0,0,1,469.9658,220c0,.3945-.0273.7817-.0547,1.1689C469.8916,221.4561,469.8711,221.7432,469.8633,222.0332Z"/><path class="c" d="M443.7075,278.2783A78.9608,78.9608,0,0,1,390,299.3408c-.8626,0-1.6969-.1014-2.5542-.1287a79.0376,79.0376,0,0,1-53.8032-23.3906l-58.1565,58.1553a161.0413,161.0413,0,0,0,111.96,47.535c.8538.0133,1.6969.0644,2.5542.0644A160.986,160.986,0,0,0,501.9117,336.482Z"/><path class="b" d="M390,382.2012c-.5029,0-1.001-.0166-1.499-.0342-.3545-.0127-.709-.0244-1.0655-.03A161.2823,161.2823,0,0,1,275.042,334.418a.6265.6265,0,0,1,.001-.8838L333.2,275.3789a.8986.8986,0,0,1,.4443-.1826.6243.6243,0,0,1,.4424.1855,78.3118,78.3118,0,0,0,53.3779,23.2051c.3711.0117.7364.0371,1.1026.0625.4746.0332.9492.0664,1.4326.0664a78.4277,78.4277,0,0,0,53.2832-20.8965.6253.6253,0,0,1,.8662.0166L502.3545,336.04a.6249.6249,0,0,1-.01.8926A161.4029,161.4029,0,0,1,390,382.2012ZM276.3691,333.9766a160.0274,160.0274,0,0,0,111.086,46.91c.3642.0059.7265.0186,1.0888.0313.4844.0166.9678.0332,1.4561.0332a160.15,160.15,0,0,0,111.0186-44.4785l-57.3311-57.3291A79.66,79.66,0,0,1,390,299.9658c-.5127,0-1.0156-.0342-1.5195-.0693-.35-.0244-.7-.0488-1.0547-.06a79.5645,79.5645,0,0,1-53.7832-23.1308Z"/><path class="d" d="M310.7606,222.0166H228.4754a161.0346,161.0346,0,0,0,47.01,111.96l58.1565-58.1553A79.0343,79.0343,0,0,1,310.7606,222.0166Z"/><path class="b" d="M275.4854,334.6016h-.001a.623.623,0,0,1-.4424-.1846,161.3,161.3,0,0,1-47.1914-112.3926.625.625,0,0,1,.625-.6328h82.2851a.6255.6255,0,0,1,.625.6094,78.3479,78.3479,0,0,0,22.7012,53.3808.6252.6252,0,0,1-.0019.8819l-58.1573,58.1552A.6251.6251,0,0,1,275.4854,334.6016Zm-46.376-111.96a160.03,160.03,0,0,0,46.3779,110.4492l57.2754-57.2734a79.5886,79.5886,0,0,1-22.6094-53.1758Z"/><path class="e" d="M503.9772,105.4866A161.058,161.058,0,0,0,390,58.4238c-.8573,0-1.7.0511-2.5542.0644v82.2993c.8573-.0273,1.6916-.1288,2.5542-.1288A79.3838,79.3838,0,0,1,469.3408,220c0,.6809-.0846,1.34-.1023,2.0166a79.0058,79.0058,0,0,1-25.531,56.2617l58.2042,58.2037a161.04,161.04,0,0,0,49.6121-114.4654c.0088-.6743.0511-1.34.0511-2.0166A161.07,161.07,0,0,0,503.9772,105.4866Z"/><path class="b" d="M501.9033,337.3574l-.4336-.4326-58.665-58.665.4785-.4414a77.9983,77.9983,0,0,0,25.33-55.8174c.0078-.31.0293-.6143.0517-.92.0254-.3584.0508-.7164.0508-1.0811A78.758,78.758,0,0,0,390,141.2837c-.4834,0-.958.0332-1.4326.0664-.3662.0254-.7324.05-1.1026.062l-.6445.02V57.873l.6152-.01c.3594-.0054.7178-.0181,1.0762-.03.4942-.0171.9893-.0342,1.4883-.0342a161.1731,161.1731,0,0,1,114.418,47.2447h.0009A161.1077,161.1077,0,0,1,552.2,220c0,.3843-.0137.7651-.0273,1.1465-.01.292-.0206.5849-.0245.8779a160.96,160.96,0,0,1-49.8037,114.9082Zm-57.2959-59.0625L501.92,335.6064a159.7121,159.7121,0,0,0,48.9785-113.5976c.0039-.3037.0147-.6055.0254-.9072.0127-.3662.0264-.7325.0264-1.1016a159.8857,159.8857,0,0,0-47.4131-114.0708h0A159.935,159.935,0,0,0,390,59.0488c-.4844,0-.9648.0166-1.4453.0332-.1611.0059-.3233.0113-.4844.0161V140.13c.1367-.0083.2735-.0181.41-.0274.5039-.0351,1.0068-.0693,1.5195-.0693A80.01,80.01,0,0,1,469.9658,220c0,.3945-.0273.7817-.0547,1.1689-.0195.2872-.041.5743-.0478.8643A79.2241,79.2241,0,0,1,444.6074,278.2949Z"/><path class="f" d="M273.5177,108.0877A160.9929,160.9929,0,0,0,228.4251,220c0,.6764.0414,1.3424.051,2.0167H310.76c-.0175-.6767-.102-1.3359-.102-2.0167a79.4163,79.4163,0,0,1,76.7874-79.2126V58.4882A161.0367,161.0367,0,0,0,273.5177,108.0877Z"/><path class="b" d="M310.7607,222.6416H228.4766a.625.625,0,0,1-.625-.6162c-.0039-.2881-.0147-.5752-.0245-.8623-.0136-.3867-.0273-.7735-.0273-1.1631a161.4066,161.4066,0,0,1,45.2676-112.3452h0A161.0019,161.0019,0,0,1,387.4355,57.8633a.7319.7319,0,0,1,.4483.18.6252.6252,0,0,1,.1865.4453v82.2988a.6247.6247,0,0,1-.6055.6245A78.7937,78.7937,0,0,0,311.2832,220c0,.3647.0264.7227.0508,1.0811.0224.3056.0439.61.0517.9189a.6254.6254,0,0,1-.625.6416Zm-81.6748-1.25h81.0176c-.0058-.0742-.0107-.1484-.0156-.2227-.0274-.3872-.0547-.7744-.0547-1.1689A80.0423,80.0423,0,0,1,386.82,140.1841v-81.06A160.9834,160.9834,0,0,0,229.05,220c0,.375.0137.7466.0264,1.1182C229.0791,221.21,229.083,221.3008,229.0859,221.3916Z"/><circle class="a" cx="388.6987" cy="218.617" r="124.3013"/><path class="b" d="M388.6982,343.543A124.9261,124.9261,0,1,1,513.625,218.6172,125.0666,125.0666,0,0,1,388.6982,343.543Zm0-248.6021A123.6761,123.6761,0,1,0,512.375,218.6172,123.8159,123.8159,0,0,0,388.6982,94.9409Z"/><path class="b" d="M246.5156,192.7012H167.8018a.625.625,0,0,1,0-1.25h78.7138a.625.625,0,0,1,0,1.25Z"/><circle class="g" cx="250.754" cy="192.0762" r="4.2384"/><path class="b" d="M250.7539,196.94a4.8633,4.8633,0,1,1,4.8633-4.8633A4.8689,4.8689,0,0,1,250.7539,196.94Zm0-8.4766a3.6133,3.6133,0,1,0,3.6133,3.6133A3.6176,3.6176,0,0,0,250.7539,188.4629Z"/><path class="b" d="M246.5156,248.3467H167.8018a.625.625,0,0,1,0-1.25h78.7138a.625.625,0,0,1,0,1.25Z"/><circle class="g" cx="250.754" cy="247.722" r="4.2384"/><path class="b" d="M250.7539,252.585a4.8633,4.8633,0,1,1,4.8633-4.8633A4.8689,4.8689,0,0,1,250.7539,252.585Zm0-8.4766a3.6133,3.6133,0,1,0,3.6133,3.6133A3.6176,3.6176,0,0,0,250.7539,244.1084Z"/><rect class="g" x="149.2336" y="178.2508" width="41.1733" height="27.4489" transform="translate(339.6404 383.9505) rotate(180)"/><path class="b" d="M190.4072,206.3247H149.2334a.6253.6253,0,0,1-.625-.625V178.251a.6253.6253,0,0,1,.625-.625h41.1738a.6252.6252,0,0,1,.625.625V205.7A.6252.6252,0,0,1,190.4072,206.3247Zm-40.5488-1.25h39.9238V178.876H149.8584Z"/><rect class="g" x="149.2336" y="234.3003" width="41.1733" height="27.4489" transform="translate(339.6404 496.0495) rotate(180)"/><path class="b" d="M190.4072,262.374H149.2334a.6255.6255,0,0,1-.625-.625V234.3008a.6256.6256,0,0,1,.625-.625h41.1738a.6255.6255,0,0,1,.625.625V261.749A.6255.6255,0,0,1,190.4072,262.374Zm-40.5488-1.25h39.9238V234.9258H149.8584Z"/><polygon class="g" points="346.704 265.027 448.803 206.079 346.704 147.128 346.704 265.027"/><path class="b" d="M346.0791,266.1094V146.0449l103.9746,60.0342Zm1.25-117.8994V263.9434l100.2246-57.8643Z"/><rect class="g" x="369.6579" y="287.73" width="79.8314" height="8.1453"/><path class="b" d="M448.2394,288.98v5.6454H370.908V288.98h77.3314m1.25-1.25H369.658v8.1454h79.8314V287.73Z"/><rect class="h" x="330.5106" y="287.73" width="38.2186" height="8.1453"/><path class="b" d="M369.3545,296.5H329.8857v-9.3945h39.4688Zm-38.2188-1.25h36.9688v-6.8945H331.1357Z"/><rect class="h" x="357.6584" y="289.0293" width="22.1393" height="5.5468" transform="translate(76.9253 660.5307) rotate(-90)"/><path class="b" d="M372.126,303.4971H365.33V280.1084h6.7959Zm-5.5459-1.25h4.2959V281.3584H366.58Z"/></svg>